<svg id="Capa_1" enable-background="new 0 0 512 512" height="512" viewBox="0 0 512 512" width="512" xmlns="http://www.w3.org/2000/svg" xmlns:xlink="http://www.w3.org/1999/xlink"><linearGradient id="SVGID_1_" gradientUnits="userSpaceOnUse" x1="256" x2="256" y1="512" y2="0"><stop offset="0" stop-color="#ffbef9"/><stop offset="1" stop-color="#fff1ff"/></linearGradient><linearGradient id="SVGID_2_" gradientUnits="userSpaceOnUse" x1="256" x2="256" y1="321.64" y2="212.21"><stop offset="0" stop-color="#ff81ff"/><stop offset="1" stop-color="#a93aff"/></linearGradient><g><g><circle cx="256" cy="256" fill="url(#SVGID_1_)" r="256"/></g><g><g><path d="m279.204 180.723-17.257-17.246c-6.152-6.157-15.197-8.154-24.651-5.497-2.989.834-6.204-.087-8.463-2.345-1.946-1.936-2.833-4.802-2.468-7.659 1.659-10.898-2.068-22.117-10.01-30.071-17.465-17.211-45.67-17.22-62.909.043-17.248 17.228-17.274 45.432 0 62.913 7.916 7.885 19.177 11.575 29.847 9.995 3.041-.434 5.926.478 7.872 2.44 2.25 2.249 3.146 5.488 2.355 8.38-2.676 9.543-.678 18.548 5.483 24.705l17.257 17.246c3.476 3.474 9.106 3.473 12.582 0l50.362-50.33c3.475-3.474 3.475-9.101 0-12.574zm72.928 158.979c-3.337-4.811-11.313-4.811-14.65 0-5.822 8.432-19.368 29.255-19.368 40.622 0 14.71 11.974 26.676 26.693 26.676s26.693-11.966 26.693-26.676c0-11.367-13.546-32.19-19.368-40.622zm-66.689-127.492-34.757 34.734h69.513zm71.824 100.538c0-17.783-7.147-35.149-19.478-48.02h-75.147l36.547 36.523c12.973 12.956 30.898 20.389 49.181 20.389 4.918 0 8.897-3.977 8.897-8.892z" fill="url(#SVGID_2_)"/></g></g></g></svg>